<svg xmlns="http://www.w3.org/2000/svg" 
    width="40" height="40" viewBox="0 -960 960 960" fill="#E0E0E0">
    
    <style>
        svg { 
            transition: transform .6s ease; 
        }

        svg:hover { 
            transform: rotate(360deg) scale(1.25); 
        }
    </style>
    
    <path d="M742-435.67v-120H622v-80h120v-120h80v120h120v80H822v120h-80ZM232.36-546.36Q181-597.73 181-676.2T232.36-806q51.37-51.33 129.84-51.33T492.5-806q51.83 51.33 51.83 129.8 0 78.47-51.83 129.84Q440.67-495 362.2-495q-78.47 0-129.84-51.36ZM14.33-117.67v-130q0-42.63 22.03-77.26T96.67-378q73-33.33 136.29-48.17Q296.25-441 362-441q67.67 0 131 14.67 63.33 14.66 135 48 38.28 18.29 60.64 52.48T711-247.84v130.17H14.33ZM119-222.33h486.67v-21q0-13.61-7.89-25.68-7.88-12.07-20.96-18.07-59.82-27.59-108.49-38.09-48.66-10.5-106.33-10.5-55.67 0-105.67 10.5T147.29-287.1q-13.29 5.99-20.79 18.07t-7.5 25.7v21Zm298.33-399.33q21.67-21.99 21.67-55 0-33.01-21.63-54.51t-54.64-21.5q-33.01 0-55.04 21.53-22.02 21.53-22.02 54.54 0 33 21.99 54.97 21.99 21.96 55 21.96 33.01 0 54.67-21.99Zm-55-54.67Zm0 454Z"/>

</svg>